  0
SECTION
  2
HEADER
  9
$ACADVER
  1
AC1009
  9
$EXTMIN
 10
0.0
 20
0.0
 30
0.0
  9
$EXTMAX
 10
1000.0
 20
1000.0
 30
0.0
  9
$FILLMODE
 70
 0
  9
$SPLFRAME
 70
 1
  0
ENDSEC
  0
SECTION
  2
TABLES
  0
TABLE
  2
LAYER
 70
1
  0
LAYER
  2
0
 70
     0
 62
     7
  6
CONTINUOUS
  0
ENDTAB
  0
ENDSEC
  0
SECTION
  2
ENTITIES
  0
LINE
  8
0
 62
     0
 10
219.499
 20
69.402
 30
0.0
 11
219.578
 21
69.3995
 31
0.0
  0
LINE
  8
0
 62
     0
 10
219.578
 20
69.3995
 30
0.0
 11
219.655
 21
69.3896
 31
0.0
  0
LINE
  8
0
 62
     0
 10
219.655
 20
69.3896
 30
0.0
 11
219.732
 21
69.3745
 31
0.0
  0
LINE
  8
0
 62
     0
 10
219.732
 20
69.3745
 30
0.0
 11
219.808
 21
69.354
 31
0.0
  0
LINE
  8
0
 62
     0
 10
219.808
 20
69.354
 30
0.0
 11
219.883
 21
69.3265
 31
0.0
  0
LINE
  8
0
 62
     0
 10
219.883
 20
69.3265
 30
0.0
 11
219.953
 21
69.2933
 31
0.0
  0
LINE
  8
0
 62
     0
 10
219.953
 20
69.2933
 30
0.0
 11
220.022
 21
69.2549
 31
0.0
  0
LINE
  8
0
 62
     0
 10
220.022
 20
69.2549
 30
0.0
 11
220.088
 21
69.2118
 31
0.0
  0
LINE
  8
0
 62
     0
 10
220.088
 20
69.2118
 30
0.0
 11
220.149
 21
69.1624
 31
0.0
  0
LINE
  8
0
 62
     0
 10
220.149
 20
69.1624
 30
0.0
 11
220.206
 21
69.1099
 31
0.0
  0
LINE
  8
0
 62
     0
 10
220.206
 20
69.1099
 30
0.0
 11
220.26
 21
69.052
 31
0.0
  0
LINE
  8
0
 62
     0
 10
220.26
 20
69.052
 30
0.0
 11
220.308
 21
68.9903
 31
0.0
  0
LINE
  8
0
 62
     0
 10
220.308
 20
68.9903
 30
0.0
 11
220.352
 21
68.9254
 31
0.0
  0
LINE
  8
0
 62
     0
 10
220.352
 20
68.9254
 30
0.0
 11
220.391
 21
68.8552
 31
0.0
  0
LINE
  8
0
 62
     0
 10
220.391
 20
68.8552
 30
0.0
 11
220.424
 21
68.7846
 31
0.0
  0
LINE
  8
0
 62
     0
 10
220.424
 20
68.7846
 30
0.0
 11
220.45
 21
68.7116
 31
0.0
  0
LINE
  8
0
 62
     0
 10
220.45
 20
68.7116
 30
0.0
 11
220.471
 21
68.6361
 31
0.0
  0
LINE
  8
0
 62
     0
 10
220.471
 20
68.6361
 30
0.0
 11
220.488
 21
68.5588
 31
0.0
  0
LINE
  8
0
 62
     0
 10
220.488
 20
68.5588
 30
0.0
 11
220.497
 21
68.4802
 31
0.0
  0
LINE
  8
0
 62
     0
 10
220.497
 20
68.4802
 30
0.0
 11
220.5
 21
68.4018
 31
0.0
  0
LINE
  8
0
 62
     0
 10
220.5
 20
68.4018
 30
0.0
 11
220.5
 21
1.1107
 31
0.0
  0
LINE
  8
0
 62
     0
 10
220.5
 20
1.1107
 30
0.0
 11
220.497
 21
1.03215
 31
0.0
  0
LINE
  8
0
 62
     0
 10
220.497
 20
1.03215
 30
0.0
 11
220.488
 21
0.953604
 31
0.0
  0
LINE
  8
0
 62
     0
 10
220.488
 20
0.953604
 30
0.0
 11
220.471
 21
0.876434
 31
0.0
  0
LINE
  8
0
 62
     0
 10
220.471
 20
0.876434
 30
0.0
 11
220.45
 21
0.802019
 31
0.0
  0
LINE
  8
0
 62
     0
 10
220.45
 20
0.802019
 30
0.0
 11
220.424
 21
0.727604
 31
0.0
  0
LINE
  8
0
 62
     0
 10
220.424
 20
0.727604
 30
0.0
 11
220.391
 21
0.657324
 31
0.0
  0
LINE
  8
0
 62
     0
 10
220.391
 20
0.657324
 30
0.0
 11
220.352
 21
0.588423
 31
0.0
  0
LINE
  8
0
 62
     0
 10
220.352
 20
0.588423
 30
0.0
 11
220.308
 21
0.522277
 31
0.0
  0
LINE
  8
0
 62
     0
 10
220.308
 20
0.522277
 30
0.0
 11
220.26
 21
0.460266
 31
0.0
  0
LINE
  8
0
 62
     0
 10
220.26
 20
0.460266
 30
0.0
 11
220.206
 21
0.403765
 31
0.0
  0
LINE
  8
0
 62
     0
 10
220.206
 20
0.403765
 30
0.0
 11
220.149
 21
0.350022
 31
0.0
  0
LINE
  8
0
 62
     0
 10
220.149
 20
0.350022
 30
0.0
 11
220.088
 21
0.30179
 31
0.0
  0
LINE
  8
0
 62
     0
 10
220.088
 20
0.30179
 30
0.0
 11
220.022
 21
0.257693
 31
0.0
  0
LINE
  8
0
 62
     0
 10
220.022
 20
0.257693
 30
0.0
 11
219.953
 21
0.219108
 31
0.0
  0
LINE
  8
0
 62
     0
 10
219.953
 20
0.219108
 30
0.0
 11
219.883
 21
0.187413
 31
0.0
  0
LINE
  8
0
 62
     0
 10
219.883
 20
0.187413
 30
0.0
 11
219.808
 21
0.159852
 31
0.0
  0
LINE
  8
0
 62
     0
 10
219.808
 20
0.159852
 30
0.0
 11
219.732
 21
0.137804
 31
0.0
  0
LINE
  8
0
 62
     0
 10
219.732
 20
0.137804
 30
0.0
 11
219.655
 21
0.122645
 31
0.0
  0
LINE
  8
0
 62
     0
 10
219.655
 20
0.122645
 30
0.0
 11
219.578
 21
0.114377
 31
0.0
  0
LINE
  8
0
 62
     0
 10
219.578
 20
0.114377
 30
0.0
 11
219.499
 21
0.110243
 31
0.0
  0
LINE
  8
0
 62
     0
 10
219.499
 20
0.110243
 30
0.0
 11
1.09554
 21
0.110243
 31
0.0
  0
LINE
  8
0
 62
     0
 10
1.09554
 20
0.110243
 30
0.0
 11
1.01699
 21
0.114377
 31
0.0
  0
LINE
  8
0
 62
     0
 10
1.01699
 20
0.114377
 30
0.0
 11
0.938445
 21
0.122645
 31
0.0
  0
LINE
  8
0
 62
     0
 10
0.938445
 20
0.122645
 30
0.0
 11
0.861275
 21
0.137804
 31
0.0
  0
LINE
  8
0
 62
     0
 10
0.861275
 20
0.137804
 30
0.0
 11
0.785481
 21
0.159852
 31
0.0
  0
LINE
  8
0
 62
     0
 10
0.785481
 20
0.159852
 30
0.0
 11
0.712445
 21
0.187413
 31
0.0
  0
LINE
  8
0
 62
     0
 10
0.712445
 20
0.187413
 30
0.0
 11
0.642165
 21
0.219108
 31
0.0
  0
LINE
  8
0
 62
     0
 10
0.642165
 20
0.219108
 30
0.0
 11
0.571885
 21
0.257693
 31
0.0
  0
LINE
  8
0
 62
     0
 10
0.571885
 20
0.257693
 30
0.0
 11
0.507118
 21
0.30179
 31
0.0
  0
LINE
  8
0
 62
     0
 10
0.507118
 20
0.30179
 30
0.0
 11
0.445107
 21
0.350022
 31
0.0
  0
LINE
  8
0
 62
     0
 10
0.445107
 20
0.350022
 30
0.0
 11
0.38723
 21
0.403765
 31
0.0
  0
LINE
  8
0
 62
     0
 10
0.38723
 20
0.403765
 30
0.0
 11
0.334863
 21
0.460266
 31
0.0
  0
LINE
  8
0
 62
     0
 10
0.334863
 20
0.460266
 30
0.0
 11
0.285254
 21
0.522277
 31
0.0
  0
LINE
  8
0
 62
     0
 10
0.285254
 20
0.522277
 30
0.0
 11
0.242535
 21
0.588423
 31
0.0
  0
LINE
  8
0
 62
     0
 10
0.242535
 20
0.588423
 30
0.0
 11
0.20395
 21
0.657324
 31
0.0
  0
LINE
  8
0
 62
     0
 10
0.20395
 20
0.657324
 30
0.0
 11
0.170877
 21
0.727604
 31
0.0
  0
LINE
  8
0
 62
     0
 10
0.170877
 20
0.727604
 30
0.0
 11
0.143316
 21
0.802019
 31
0.0
  0
LINE
  8
0
 62
     0
 10
0.143316
 20
0.802019
 30
0.0
 11
0.122645
 21
0.876434
 31
0.0
  0
LINE
  8
0
 62
     0
 10
0.122645
 20
0.876434
 30
0.0
 11
0.107487
 21
0.953604
 31
0.0
  0
LINE
  8
0
 62
     0
 10
0.107487
 20
0.953604
 30
0.0
 11
0.0978408
 21
1.03215
 31
0.0
  0
LINE
  8
0
 62
     0
 10
0.0978408
 20
1.03215
 30
0.0
 11
0.0950846
 21
1.1107
 31
0.0
  0
LINE
  8
0
 62
     0
 10
0.0950846
 20
1.1107
 30
0.0
 11
0.0950846
 21
68.4018
 31
0.0
  0
LINE
  8
0
 62
     0
 10
0.0950846
 20
68.4018
 30
0.0
 11
0.0978408
 21
68.4802
 31
0.0
  0
LINE
  8
0
 62
     0
 10
0.0978408
 20
68.4802
 30
0.0
 11
0.107487
 21
68.5588
 31
0.0
  0
LINE
  8
0
 62
     0
 10
0.107487
 20
68.5588
 30
0.0
 11
0.122645
 21
68.6361
 31
0.0
  0
LINE
  8
0
 62
     0
 10
0.122645
 20
68.6361
 30
0.0
 11
0.143316
 21
68.7116
 31
0.0
  0
LINE
  8
0
 62
     0
 10
0.143316
 20
68.7116
 30
0.0
 11
0.170877
 21
68.7846
 31
0.0
  0
LINE
  8
0
 62
     0
 10
0.170877
 20
68.7846
 30
0.0
 11
0.20395
 21
68.8552
 31
0.0
  0
LINE
  8
0
 62
     0
 10
0.20395
 20
68.8552
 30
0.0
 11
0.242535
 21
68.9254
 31
0.0
  0
LINE
  8
0
 62
     0
 10
0.242535
 20
68.9254
 30
0.0
 11
0.285254
 21
68.9903
 31
0.0
  0
LINE
  8
0
 62
     0
 10
0.285254
 20
68.9903
 30
0.0
 11
0.334863
 21
69.052
 31
0.0
  0
LINE
  8
0
 62
     0
 10
0.334863
 20
69.052
 30
0.0
 11
0.38723
 21
69.1099
 31
0.0
  0
LINE
  8
0
 62
     0
 10
0.38723
 20
69.1099
 30
0.0
 11
0.445107
 21
69.1624
 31
0.0
  0
LINE
  8
0
 62
     0
 10
0.445107
 20
69.1624
 30
0.0
 11
0.507118
 21
69.2118
 31
0.0
  0
LINE
  8
0
 62
     0
 10
0.507118
 20
69.2118
 30
0.0
 11
0.571885
 21
69.2549
 31
0.0
  0
LINE
  8
0
 62
     0
 10
0.571885
 20
69.2549
 30
0.0
 11
0.642165
 21
69.2933
 31
0.0
  0
LINE
  8
0
 62
     0
 10
0.642165
 20
69.2933
 30
0.0
 11
0.712445
 21
69.3265
 31
0.0
  0
LINE
  8
0
 62
     0
 10
0.712445
 20
69.3265
 30
0.0
 11
0.785481
 21
69.354
 31
0.0
  0
LINE
  8
0
 62
     0
 10
0.785481
 20
69.354
 30
0.0
 11
0.861275
 21
69.3745
 31
0.0
  0
LINE
  8
0
 62
     0
 10
0.861275
 20
69.3745
 30
0.0
 11
0.938445
 21
69.3896
 31
0.0
  0
LINE
  8
0
 62
     0
 10
0.938445
 20
69.3896
 30
0.0
 11
1.01699
 21
69.3995
 31
0.0
  0
LINE
  8
0
 62
     0
 10
1.01699
 20
69.3995
 30
0.0
 11
1.09554
 21
69.402
 31
0.0
  0
LINE
  8
0
 62
     0
 10
1.09554
 20
69.402
 30
0.0
 11
219.499
 21
69.402
 31
0.0
  0
LINE
  8
0
 62
     0
 10
1.86862
 20
3.11299
 30
0.0
 11
1.59714
 21
2.97518
 31
0.0
  0
LINE
  8
0
 62
     0
 10
1.59714
 20
2.97518
 30
0.0
 11
1.38217
 21
2.75883
 31
0.0
  0
LINE
  8
0
 62
     0
 10
1.38217
 20
2.75883
 30
0.0
 11
1.24299
 21
2.48736
 31
0.0
  0
LINE
  8
0
 62
     0
 10
1.24299
 20
2.48736
 30
0.0
 11
1.19476
 21
2.18557
 31
0.0
  0
LINE
  8
0
 62
     0
 10
1.19476
 20
2.18557
 30
0.0
 11
1.24299
 21
1.88516
 31
0.0
  0
LINE
  8
0
 62
     0
 10
1.24299
 20
1.88516
 30
0.0
 11
1.38217
 21
1.6123
 31
0.0
  0
LINE
  8
0
 62
     0
 10
1.38217
 20
1.6123
 30
0.0
 11
1.59714
 21
1.39733
 31
0.0
  0
LINE
  8
0
 62
     0
 10
1.59714
 20
1.39733
 30
0.0
 11
1.86862
 21
1.25815
 31
0.0
  0
LINE
  8
0
 62
     0
 10
1.86862
 20
1.25815
 30
0.0
 11
2.16903
 21
1.21129
 31
0.0
  0
LINE
  8
0
 62
     0
 10
2.16903
 20
1.21129
 30
0.0
 11
2.47082
 21
1.25815
 31
0.0
  0
LINE
  8
0
 62
     0
 10
2.47082
 20
1.25815
 30
0.0
 11
2.74367
 21
1.39733
 31
0.0
  0
LINE
  8
0
 62
     0
 10
2.74367
 20
1.39733
 30
0.0
 11
2.95865
 21
1.6123
 31
0.0
  0
LINE
  8
0
 62
     0
 10
2.95865
 20
1.6123
 30
0.0
 11
3.09783
 21
1.88516
 31
0.0
  0
LINE
  8
0
 62
     0
 10
3.09783
 20
1.88516
 30
0.0
 11
3.14331
 21
2.18557
 31
0.0
  0
LINE
  8
0
 62
     0
 10
3.14331
 20
2.18557
 30
0.0
 11
3.09783
 21
2.48736
 31
0.0
  0
LINE
  8
0
 62
     0
 10
3.09783
 20
2.48736
 30
0.0
 11
2.95865
 21
2.75883
 31
0.0
  0
LINE
  8
0
 62
     0
 10
2.95865
 20
2.75883
 30
0.0
 11
2.74367
 21
2.97518
 31
0.0
  0
LINE
  8
0
 62
     0
 10
2.74367
 20
2.97518
 30
0.0
 11
2.47082
 21
3.11299
 31
0.0
  0
LINE
  8
0
 62
     0
 10
2.47082
 20
3.11299
 30
0.0
 11
2.16903
 21
3.16122
 31
0.0
  0
LINE
  8
0
 62
     0
 10
2.16903
 20
3.16122
 30
0.0
 11
1.86862
 21
3.11299
 31
0.0
  0
LINE
  8
0
 62
     0
 10
218.124
 20
3.11299
 30
0.0
 11
217.851
 21
2.97518
 31
0.0
  0
LINE
  8
0
 62
     0
 10
217.851
 20
2.97518
 30
0.0
 11
217.635
 21
2.75883
 31
0.0
  0
LINE
  8
0
 62
     0
 10
217.635
 20
2.75883
 30
0.0
 11
217.497
 21
2.48736
 31
0.0
  0
LINE
  8
0
 62
     0
 10
217.497
 20
2.48736
 30
0.0
 11
217.449
 21
2.18557
 31
0.0
  0
LINE
  8
0
 62
     0
 10
217.449
 20
2.18557
 30
0.0
 11
217.497
 21
1.88516
 31
0.0
  0
LINE
  8
0
 62
     0
 10
217.497
 20
1.88516
 30
0.0
 11
217.635
 21
1.6123
 31
0.0
  0
LINE
  8
0
 62
     0
 10
217.635
 20
1.6123
 30
0.0
 11
217.851
 21
1.39733
 31
0.0
  0
LINE
  8
0
 62
     0
 10
217.851
 20
1.39733
 30
0.0
 11
218.124
 21
1.25815
 31
0.0
  0
LINE
  8
0
 62
     0
 10
218.124
 20
1.25815
 30
0.0
 11
218.424
 21
1.21129
 31
0.0
  0
LINE
  8
0
 62
     0
 10
218.424
 20
1.21129
 30
0.0
 11
218.725
 21
1.25815
 31
0.0
  0
LINE
  8
0
 62
     0
 10
218.725
 20
1.25815
 30
0.0
 11
218.998
 21
1.39733
 31
0.0
  0
LINE
  8
0
 62
     0
 10
218.998
 20
1.39733
 30
0.0
 11
219.213
 21
1.6123
 31
0.0
  0
LINE
  8
0
 62
     0
 10
219.213
 20
1.6123
 30
0.0
 11
219.352
 21
1.88516
 31
0.0
  0
LINE
  8
0
 62
     0
 10
219.352
 20
1.88516
 30
0.0
 11
219.399
 21
2.18557
 31
0.0
  0
LINE
  8
0
 62
     0
 10
219.399
 20
2.18557
 30
0.0
 11
219.352
 21
2.48736
 31
0.0
  0
LINE
  8
0
 62
     0
 10
219.352
 20
2.48736
 30
0.0
 11
219.213
 21
2.75883
 31
0.0
  0
LINE
  8
0
 62
     0
 10
219.213
 20
2.75883
 30
0.0
 11
218.998
 21
2.97518
 31
0.0
  0
LINE
  8
0
 62
     0
 10
218.998
 20
2.97518
 30
0.0
 11
218.725
 21
3.11299
 31
0.0
  0
LINE
  8
0
 62
     0
 10
218.725
 20
3.11299
 30
0.0
 11
218.424
 21
3.16122
 31
0.0
  0
LINE
  8
0
 62
     0
 10
218.424
 20
3.16122
 30
0.0
 11
218.124
 21
3.11299
 31
0.0
  0
LINE
  8
0
 62
     0
 10
4.24575
 20
65.253
 30
0.0
 11
216.349
 21
65.253
 31
0.0
  0
LINE
  8
0
 62
     0
 10
216.349
 20
65.253
 30
0.0
 11
216.349
 21
4.26089
 31
0.0
  0
LINE
  8
0
 62
     0
 10
216.349
 20
4.26089
 30
0.0
 11
4.24575
 21
4.26089
 31
0.0
  0
LINE
  8
0
 62
     0
 10
4.24575
 20
4.26089
 30
0.0
 11
4.24575
 21
65.253
 31
0.0
  0
LINE
  8
0
 62
     0
 10
1.86862
 20
68.2544
 30
0.0
 11
1.59714
 21
68.115
 31
0.0
  0
LINE
  8
0
 62
     0
 10
1.59714
 20
68.115
 30
0.0
 11
1.38217
 21
67.9002
 31
0.0
  0
LINE
  8
0
 62
     0
 10
1.38217
 20
67.9002
 30
0.0
 11
1.24299
 21
67.6286
 31
0.0
  0
LINE
  8
0
 62
     0
 10
1.24299
 20
67.6286
 30
0.0
 11
1.19476
 21
67.3269
 31
0.0
  0
LINE
  8
0
 62
     0
 10
1.19476
 20
67.3269
 30
0.0
 11
1.24299
 21
67.0264
 31
0.0
  0
LINE
  8
0
 62
     0
 10
1.24299
 20
67.0264
 30
0.0
 11
1.38217
 21
66.7537
 31
0.0
  0
LINE
  8
0
 62
     0
 10
1.38217
 20
66.7537
 30
0.0
 11
1.59714
 21
66.5385
 31
0.0
  0
LINE
  8
0
 62
     0
 10
1.59714
 20
66.5385
 30
0.0
 11
1.86862
 21
66.3995
 31
0.0
  0
LINE
  8
0
 62
     0
 10
1.86862
 20
66.3995
 30
0.0
 11
2.16903
 21
66.3512
 31
0.0
  0
LINE
  8
0
 62
     0
 10
2.16903
 20
66.3512
 30
0.0
 11
2.47082
 21
66.3995
 31
0.0
  0
LINE
  8
0
 62
     0
 10
2.47082
 20
66.3995
 30
0.0
 11
2.74367
 21
66.5385
 31
0.0
  0
LINE
  8
0
 62
     0
 10
2.74367
 20
66.5385
 30
0.0
 11
2.95865
 21
66.7537
 31
0.0
  0
LINE
  8
0
 62
     0
 10
2.95865
 20
66.7537
 30
0.0
 11
3.09783
 21
67.0264
 31
0.0
  0
LINE
  8
0
 62
     0
 10
3.09783
 20
67.0264
 30
0.0
 11
3.14331
 21
67.3269
 31
0.0
  0
LINE
  8
0
 62
     0
 10
3.14331
 20
67.3269
 30
0.0
 11
3.09783
 21
67.6286
 31
0.0
  0
LINE
  8
0
 62
     0
 10
3.09783
 20
67.6286
 30
0.0
 11
2.95865
 21
67.9002
 31
0.0
  0
LINE
  8
0
 62
     0
 10
2.95865
 20
67.9002
 30
0.0
 11
2.74367
 21
68.115
 31
0.0
  0
LINE
  8
0
 62
     0
 10
2.74367
 20
68.115
 30
0.0
 11
2.47082
 21
68.2544
 31
0.0
  0
LINE
  8
0
 62
     0
 10
2.47082
 20
68.2544
 30
0.0
 11
2.16903
 21
68.301
 31
0.0
  0
LINE
  8
0
 62
     0
 10
2.16903
 20
68.301
 30
0.0
 11
1.86862
 21
68.2544
 31
0.0
  0
LINE
  8
0
 62
     0
 10
218.124
 20
68.2544
 30
0.0
 11
217.851
 21
68.115
 31
0.0
  0
LINE
  8
0
 62
     0
 10
217.851
 20
68.115
 30
0.0
 11
217.635
 21
67.9002
 31
0.0
  0
LINE
  8
0
 62
     0
 10
217.635
 20
67.9002
 30
0.0
 11
217.497
 21
67.6286
 31
0.0
  0
LINE
  8
0
 62
     0
 10
217.497
 20
67.6286
 30
0.0
 11
217.449
 21
67.3269
 31
0.0
  0
LINE
  8
0
 62
     0
 10
217.449
 20
67.3269
 30
0.0
 11
217.497
 21
67.0264
 31
0.0
  0
LINE
  8
0
 62
     0
 10
217.497
 20
67.0264
 30
0.0
 11
217.635
 21
66.7537
 31
0.0
  0
LINE
  8
0
 62
     0
 10
217.635
 20
66.7537
 30
0.0
 11
217.851
 21
66.5385
 31
0.0
  0
LINE
  8
0
 62
     0
 10
217.851
 20
66.5385
 30
0.0
 11
218.124
 21
66.3995
 31
0.0
  0
LINE
  8
0
 62
     0
 10
218.124
 20
66.3995
 30
0.0
 11
218.424
 21
66.3512
 31
0.0
  0
LINE
  8
0
 62
     0
 10
218.424
 20
66.3512
 30
0.0
 11
218.725
 21
66.3995
 31
0.0
  0
LINE
  8
0
 62
     0
 10
218.725
 20
66.3995
 30
0.0
 11
218.998
 21
66.5385
 31
0.0
  0
LINE
  8
0
 62
     0
 10
218.998
 20
66.5385
 30
0.0
 11
219.213
 21
66.7537
 31
0.0
  0
LINE
  8
0
 62
     0
 10
219.213
 20
66.7537
 30
0.0
 11
219.352
 21
67.0264
 31
0.0
  0
LINE
  8
0
 62
     0
 10
219.352
 20
67.0264
 30
0.0
 11
219.399
 21
67.3269
 31
0.0
  0
LINE
  8
0
 62
     0
 10
219.399
 20
67.3269
 30
0.0
 11
219.352
 21
67.6286
 31
0.0
  0
LINE
  8
0
 62
     0
 10
219.352
 20
67.6286
 30
0.0
 11
219.213
 21
67.9002
 31
0.0
  0
LINE
  8
0
 62
     0
 10
219.213
 20
67.9002
 30
0.0
 11
218.998
 21
68.115
 31
0.0
  0
LINE
  8
0
 62
     0
 10
218.998
 20
68.115
 30
0.0
 11
218.725
 21
68.2544
 31
0.0
  0
LINE
  8
0
 62
     0
 10
218.725
 20
68.2544
 30
0.0
 11
218.424
 21
68.301
 31
0.0
  0
LINE
  8
0
 62
     0
 10
218.424
 20
68.301
 30
0.0
 11
218.124
 21
68.2544
 31
0.0
  0
ENDSEC
  0
EOF
