  0
SECTION
  2
HEADER
  9
$ACADVER
  1
AC1009
  9
$EXTMIN
 10
0.0
 20
0.0
 30
0.0
  9
$EXTMAX
 10
1000.0
 20
1000.0
 30
0.0
  9
$FILLMODE
 70
 0
  9
$SPLFRAME
 70
 1
  0
ENDSEC
  0
SECTION
  2
TABLES
  0
TABLE
  2
LAYER
 70
1
  0
LAYER
  2
0
 70
     0
 62
     7
  6
CONTINUOUS
  0
ENDTAB
  0
ENDSEC
  0
SECTION
  2
ENTITIES
  0
LINE
  8
0
 62
     0
 10
219.499
 20
69.402
 30
0.0
 11
219.578
 21
69.3995
 31
0.0
  0
LINE
  8
0
 62
     0
 10
219.578
 20
69.3995
 30
0.0
 11
219.655
 21
69.3896
 31
0.0
  0
LINE
  8
0
 62
     0
 10
219.655
 20
69.3896
 30
0.0
 11
219.732
 21
69.3745
 31
0.0
  0
LINE
  8
0
 62
     0
 10
219.732
 20
69.3745
 30
0.0
 11
219.808
 21
69.354
 31
0.0
  0
LINE
  8
0
 62
     0
 10
219.808
 20
69.354
 30
0.0
 11
219.883
 21
69.3265
 31
0.0
  0
LINE
  8
0
 62
     0
 10
219.883
 20
69.3265
 30
0.0
 11
219.953
 21
69.2933
 31
0.0
  0
LINE
  8
0
 62
     0
 10
219.953
 20
69.2933
 30
0.0
 11
220.022
 21
69.2549
 31
0.0
  0
LINE
  8
0
 62
     0
 10
220.022
 20
69.2549
 30
0.0
 11
220.088
 21
69.2118
 31
0.0
  0
LINE
  8
0
 62
     0
 10
220.088
 20
69.2118
 30
0.0
 11
220.149
 21
69.1624
 31
0.0
  0
LINE
  8
0
 62
     0
 10
220.149
 20
69.1624
 30
0.0
 11
220.206
 21
69.1099
 31
0.0
  0
LINE
  8
0
 62
     0
 10
220.206
 20
69.1099
 30
0.0
 11
220.26
 21
69.052
 31
0.0
  0
LINE
  8
0
 62
     0
 10
220.26
 20
69.052
 30
0.0
 11
220.308
 21
68.9903
 31
0.0
  0
LINE
  8
0
 62
     0
 10
220.308
 20
68.9903
 30
0.0
 11
220.352
 21
68.9254
 31
0.0
  0
LINE
  8
0
 62
     0
 10
220.352
 20
68.9254
 30
0.0
 11
220.391
 21
68.8552
 31
0.0
  0
LINE
  8
0
 62
     0
 10
220.391
 20
68.8552
 30
0.0
 11
220.424
 21
68.7846
 31
0.0
  0
LINE
  8
0
 62
     0
 10
220.424
 20
68.7846
 30
0.0
 11
220.45
 21
68.7116
 31
0.0
  0
LINE
  8
0
 62
     0
 10
220.45
 20
68.7116
 30
0.0
 11
220.471
 21
68.6361
 31
0.0
  0
LINE
  8
0
 62
     0
 10
220.471
 20
68.6361
 30
0.0
 11
220.488
 21
68.5588
 31
0.0
  0
LINE
  8
0
 62
     0
 10
220.488
 20
68.5588
 30
0.0
 11
220.497
 21
68.4802
 31
0.0
  0
LINE
  8
0
 62
     0
 10
220.497
 20
68.4802
 30
0.0
 11
220.5
 21
68.4018
 31
0.0
  0
LINE
  8
0
 62
     0
 10
220.5
 20
68.4018
 30
0.0
 11
220.5
 21
1.1107
 31
0.0
  0
LINE
  8
0
 62
     0
 10
220.5
 20
1.1107
 30
0.0
 11
220.497
 21
1.03215
 31
0.0
  0
LINE
  8
0
 62
     0
 10
220.497
 20
1.03215
 30
0.0
 11
220.488
 21
0.953604
 31
0.0
  0
LINE
  8
0
 62
     0
 10
220.488
 20
0.953604
 30
0.0
 11
220.471
 21
0.876434
 31
0.0
  0
LINE
  8
0
 62
     0
 10
220.471
 20
0.876434
 30
0.0
 11
220.45
 21
0.802019
 31
0.0
  0
LINE
  8
0
 62
     0
 10
220.45
 20
0.802019
 30
0.0
 11
220.424
 21
0.727604
 31
0.0
  0
LINE
  8
0
 62
     0
 10
220.424
 20
0.727604
 30
0.0
 11
220.391
 21
0.657324
 31
0.0
  0
LINE
  8
0
 62
     0
 10
220.391
 20
0.657324
 30
0.0
 11
220.352
 21
0.588423
 31
0.0
  0
LINE
  8
0
 62
     0
 10
220.352
 20
0.588423
 30
0.0
 11
220.308
 21
0.522277
 31
0.0
  0
LINE
  8
0
 62
     0
 10
220.308
 20
0.522277
 30
0.0
 11
220.26
 21
0.460266
 31
0.0
  0
LINE
  8
0
 62
     0
 10
220.26
 20
0.460266
 30
0.0
 11
220.206
 21
0.403765
 31
0.0
  0
LINE
  8
0
 62
     0
 10
220.206
 20
0.403765
 30
0.0
 11
220.149
 21
0.350022
 31
0.0
  0
LINE
  8
0
 62
     0
 10
220.149
 20
0.350022
 30
0.0
 11
220.088
 21
0.30179
 31
0.0
  0
LINE
  8
0
 62
     0
 10
220.088
 20
0.30179
 30
0.0
 11
220.022
 21
0.257693
 31
0.0
  0
LINE
  8
0
 62
     0
 10
220.022
 20
0.257693
 30
0.0
 11
219.953
 21
0.219108
 31
0.0
  0
LINE
  8
0
 62
     0
 10
219.953
 20
0.219108
 30
0.0
 11
219.883
 21
0.187413
 31
0.0
  0
LINE
  8
0
 62
     0
 10
219.883
 20
0.187413
 30
0.0
 11
219.808
 21
0.159852
 31
0.0
  0
LINE
  8
0
 62
     0
 10
219.808
 20
0.159852
 30
0.0
 11
219.732
 21
0.137804
 31
0.0
  0
LINE
  8
0
 62
     0
 10
219.732
 20
0.137804
 30
0.0
 11
219.655
 21
0.122645
 31
0.0
  0
LINE
  8
0
 62
     0
 10
219.655
 20
0.122645
 30
0.0
 11
219.578
 21
0.114377
 31
0.0
  0
LINE
  8
0
 62
     0
 10
219.578
 20
0.114377
 30
0.0
 11
219.499
 21
0.110243
 31
0.0
  0
LINE
  8
0
 62
     0
 10
219.499
 20
0.110243
 30
0.0
 11
1.09554
 21
0.110243
 31
0.0
  0
LINE
  8
0
 62
     0
 10
1.09554
 20
0.110243
 30
0.0
 11
1.01699
 21
0.114377
 31
0.0
  0
LINE
  8
0
 62
     0
 10
1.01699
 20
0.114377
 30
0.0
 11
0.938445
 21
0.122645
 31
0.0
  0
LINE
  8
0
 62
     0
 10
0.938445
 20
0.122645
 30
0.0
 11
0.861275
 21
0.137804
 31
0.0
  0
LINE
  8
0
 62
     0
 10
0.861275
 20
0.137804
 30
0.0
 11
0.785481
 21
0.159852
 31
0.0
  0
LINE
  8
0
 62
     0
 10
0.785481
 20
0.159852
 30
0.0
 11
0.712445
 21
0.187413
 31
0.0
  0
LINE
  8
0
 62
     0
 10
0.712445
 20
0.187413
 30
0.0
 11
0.642165
 21
0.219108
 31
0.0
  0
LINE
  8
0
 62
     0
 10
0.642165
 20
0.219108
 30
0.0
 11
0.571885
 21
0.257693
 31
0.0
  0
LINE
  8
0
 62
     0
 10
0.571885
 20
0.257693
 30
0.0
 11
0.507118
 21
0.30179
 31
0.0
  0
LINE
  8
0
 62
     0
 10
0.507118
 20
0.30179
 30
0.0
 11
0.445107
 21
0.350022
 31
0.0
  0
LINE
  8
0
 62
     0
 10
0.445107
 20
0.350022
 30
0.0
 11
0.38723
 21
0.403765
 31
0.0
  0
LINE
  8
0
 62
     0
 10
0.38723
 20
0.403765
 30
0.0
 11
0.334863
 21
0.460266
 31
0.0
  0
LINE
  8
0
 62
     0
 10
0.334863
 20
0.460266
 30
0.0
 11
0.285254
 21
0.522277
 31
0.0
  0
LINE
  8
0
 62
     0
 10
0.285254
 20
0.522277
 30
0.0
 11
0.242535
 21
0.588423
 31
0.0
  0
LINE
  8
0
 62
     0
 10
0.242535
 20
0.588423
 30
0.0
 11
0.20395
 21
0.657324
 31
0.0
  0
LINE
  8
0
 62
     0
 10
0.20395
 20
0.657324
 30
0.0
 11
0.170877
 21
0.727604
 31
0.0
  0
LINE
  8
0
 62
     0
 10
0.170877
 20
0.727604
 30
0.0
 11
0.143316
 21
0.802019
 31
0.0
  0
LINE
  8
0
 62
     0
 10
0.143316
 20
0.802019
 30
0.0
 11
0.122645
 21
0.876434
 31
0.0
  0
LINE
  8
0
 62
     0
 10
0.122645
 20
0.876434
 30
0.0
 11
0.107487
 21
0.953604
 31
0.0
  0
LINE
  8
0
 62
     0
 10
0.107487
 20
0.953604
 30
0.0
 11
0.0978408
 21
1.03215
 31
0.0
  0
LINE
  8
0
 62
     0
 10
0.0978408
 20
1.03215
 30
0.0
 11
0.0950846
 21
1.1107
 31
0.0
  0
LINE
  8
0
 62
     0
 10
0.0950846
 20
1.1107
 30
0.0
 11
0.0950846
 21
68.4018
 31
0.0
  0
LINE
  8
0
 62
     0
 10
0.0950846
 20
68.4018
 30
0.0
 11
0.0978408
 21
68.4802
 31
0.0
  0
LINE
  8
0
 62
     0
 10
0.0978408
 20
68.4802
 30
0.0
 11
0.107487
 21
68.5588
 31
0.0
  0
LINE
  8
0
 62
     0
 10
0.107487
 20
68.5588
 30
0.0
 11
0.122645
 21
68.6361
 31
0.0
  0
LINE
  8
0
 62
     0
 10
0.122645
 20
68.6361
 30
0.0
 11
0.143316
 21
68.7116
 31
0.0
  0
LINE
  8
0
 62
     0
 10
0.143316
 20
68.7116
 30
0.0
 11
0.170877
 21
68.7846
 31
0.0
  0
LINE
  8
0
 62
     0
 10
0.170877
 20
68.7846
 30
0.0
 11
0.20395
 21
68.8552
 31
0.0
  0
LINE
  8
0
 62
     0
 10
0.20395
 20
68.8552
 30
0.0
 11
0.242535
 21
68.9254
 31
0.0
  0
LINE
  8
0
 62
     0
 10
0.242535
 20
68.9254
 30
0.0
 11
0.285254
 21
68.9903
 31
0.0
  0
LINE
  8
0
 62
     0
 10
0.285254
 20
68.9903
 30
0.0
 11
0.334863
 21
69.052
 31
0.0
  0
LINE
  8
0
 62
     0
 10
0.334863
 20
69.052
 30
0.0
 11
0.38723
 21
69.1099
 31
0.0
  0
LINE
  8
0
 62
     0
 10
0.38723
 20
69.1099
 30
0.0
 11
0.445107
 21
69.1624
 31
0.0
  0
LINE
  8
0
 62
     0
 10
0.445107
 20
69.1624
 30
0.0
 11
0.507118
 21
69.2118
 31
0.0
  0
LINE
  8
0
 62
     0
 10
0.507118
 20
69.2118
 30
0.0
 11
0.571885
 21
69.2549
 31
0.0
  0
LINE
  8
0
 62
     0
 10
0.571885
 20
69.2549
 30
0.0
 11
0.642165
 21
69.2933
 31
0.0
  0
LINE
  8
0
 62
     0
 10
0.642165
 20
69.2933
 30
0.0
 11
0.712445
 21
69.3265
 31
0.0
  0
LINE
  8
0
 62
     0
 10
0.712445
 20
69.3265
 30
0.0
 11
0.785481
 21
69.354
 31
0.0
  0
LINE
  8
0
 62
     0
 10
0.785481
 20
69.354
 30
0.0
 11
0.861275
 21
69.3745
 31
0.0
  0
LINE
  8
0
 62
     0
 10
0.861275
 20
69.3745
 30
0.0
 11
0.938445
 21
69.3896
 31
0.0
  0
LINE
  8
0
 62
     0
 10
0.938445
 20
69.3896
 30
0.0
 11
1.01699
 21
69.3995
 31
0.0
  0
LINE
  8
0
 62
     0
 10
1.01699
 20
69.3995
 30
0.0
 11
1.09554
 21
69.402
 31
0.0
  0
LINE
  8
0
 62
     0
 10
1.09554
 20
69.402
 30
0.0
 11
219.499
 21
69.402
 31
0.0
  0
LINE
  8
0
 62
     0
 10
1.86862
 20
3.11299
 30
0.0
 11
1.59714
 21
2.97518
 31
0.0
  0
LINE
  8
0
 62
     0
 10
1.59714
 20
2.97518
 30
0.0
 11
1.38217
 21
2.75883
 31
0.0
  0
LINE
  8
0
 62
     0
 10
1.38217
 20
2.75883
 30
0.0
 11
1.24299
 21
2.48736
 31
0.0
  0
LINE
  8
0
 62
     0
 10
1.24299
 20
2.48736
 30
0.0
 11
1.19476
 21
2.18557
 31
0.0
  0
LINE
  8
0
 62
     0
 10
1.19476
 20
2.18557
 30
0.0
 11
1.24299
 21
1.88516
 31
0.0
  0
LINE
  8
0
 62
     0
 10
1.24299
 20
1.88516
 30
0.0
 11
1.38217
 21
1.6123
 31
0.0
  0
LINE
  8
0
 62
     0
 10
1.38217
 20
1.6123
 30
0.0
 11
1.59714
 21
1.39733
 31
0.0
  0
LINE
  8
0
 62
     0
 10
1.59714
 20
1.39733
 30
0.0
 11
1.86862
 21
1.25815
 31
0.0
  0
LINE
  8
0
 62
     0
 10
1.86862
 20
1.25815
 30
0.0
 11
2.16903
 21
1.21129
 31
0.0
  0
LINE
  8
0
 62
     0
 10
2.16903
 20
1.21129
 30
0.0
 11
2.47082
 21
1.25815
 31
0.0
  0
LINE
  8
0
 62
     0
 10
2.47082
 20
1.25815
 30
0.0
 11
2.74367
 21
1.39733
 31
0.0
  0
LINE
  8
0
 62
     0
 10
2.74367
 20
1.39733
 30
0.0
 11
2.95865
 21
1.6123
 31
0.0
  0
LINE
  8
0
 62
     0
 10
2.95865
 20
1.6123
 30
0.0
 11
3.09783
 21
1.88516
 31
0.0
  0
LINE
  8
0
 62
     0
 10
3.09783
 20
1.88516
 30
0.0
 11
3.14331
 21
2.18557
 31
0.0
  0
LINE
  8
0
 62
     0
 10
3.14331
 20
2.18557
 30
0.0
 11
3.09783
 21
2.48736
 31
0.0
  0
LINE
  8
0
 62
     0
 10
3.09783
 20
2.48736
 30
0.0
 11
2.95865
 21
2.75883
 31
0.0
  0
LINE
  8
0
 62
     0
 10
2.95865
 20
2.75883
 30
0.0
 11
2.74367
 21
2.97518
 31
0.0
  0
LINE
  8
0
 62
     0
 10
2.74367
 20
2.97518
 30
0.0
 11
2.47082
 21
3.11299
 31
0.0
  0
LINE
  8
0
 62
     0
 10
2.47082
 20
3.11299
 30
0.0
 11
2.16903
 21
3.16122
 31
0.0
  0
LINE
  8
0
 62
     0
 10
2.16903
 20
3.16122
 30
0.0
 11
1.86862
 21
3.11299
 31
0.0
  0
LINE
  8
0
 62
     0
 10
218.124
 20
3.11299
 30
0.0
 11
217.851
 21
2.97518
 31
0.0
  0
LINE
  8
0
 62
     0
 10
217.851
 20
2.97518
 30
0.0
 11
217.635
 21
2.75883
 31
0.0
  0
LINE
  8
0
 62
     0
 10
217.635
 20
2.75883
 30
0.0
 11
217.497
 21
2.48736
 31
0.0
  0
LINE
  8
0
 62
     0
 10
217.497
 20
2.48736
 30
0.0
 11
217.449
 21
2.18557
 31
0.0
  0
LINE
  8
0
 62
     0
 10
217.449
 20
2.18557
 30
0.0
 11
217.497
 21
1.88516
 31
0.0
  0
LINE
  8
0
 62
     0
 10
217.497
 20
1.88516
 30
0.0
 11
217.635
 21
1.6123
 31
0.0
  0
LINE
  8
0
 62
     0
 10
217.635
 20
1.6123
 30
0.0
 11
217.851
 21
1.39733
 31
0.0
  0
LINE
  8
0
 62
     0
 10
217.851
 20
1.39733
 30
0.0
 11
218.124
 21
1.25815
 31
0.0
  0
LINE
  8
0
 62
     0
 10
218.124
 20
1.25815
 30
0.0
 11
218.424
 21
1.21129
 31
0.0
  0
LINE
  8
0
 62
     0
 10
218.424
 20
1.21129
 30
0.0
 11
218.725
 21
1.25815
 31
0.0
  0
LINE
  8
0
 62
     0
 10
218.725
 20
1.25815
 30
0.0
 11
218.998
 21
1.39733
 31
0.0
  0
LINE
  8
0
 62
     0
 10
218.998
 20
1.39733
 30
0.0
 11
219.213
 21
1.6123
 31
0.0
  0
LINE
  8
0
 62
     0
 10
219.213
 20
1.6123
 30
0.0
 11
219.352
 21
1.88516
 31
0.0
  0
LINE
  8
0
 62
     0
 10
219.352
 20
1.88516
 30
0.0
 11
219.399
 21
2.18557
 31
0.0
  0
LINE
  8
0
 62
     0
 10
219.399
 20
2.18557
 30
0.0
 11
219.352
 21
2.48736
 31
0.0
  0
LINE
  8
0
 62
     0
 10
219.352
 20
2.48736
 30
0.0
 11
219.213
 21
2.75883
 31
0.0
  0
LINE
  8
0
 62
     0
 10
219.213
 20
2.75883
 30
0.0
 11
218.998
 21
2.97518
 31
0.0
  0
LINE
  8
0
 62
     0
 10
218.998
 20
2.97518
 30
0.0
 11
218.725
 21
3.11299
 31
0.0
  0
LINE
  8
0
 62
     0
 10
218.725
 20
3.11299
 30
0.0
 11
218.424
 21
3.16122
 31
0.0
  0
LINE
  8
0
 62
     0
 10
218.424
 20
3.16122
 30
0.0
 11
218.124
 21
3.11299
 31
0.0
  0
LINE
  8
0
 62
     0
 10
159.531
 20
20.6954
 30
0.0
 11
165.385
 21
8.14144
 31
0.0
  0
LINE
  8
0
 62
     0
 10
165.385
 20
8.14144
 30
0.0
 11
177.938
 21
13.9954
 31
0.0
  0
LINE
  8
0
 62
     0
 10
177.938
 20
13.9954
 30
0.0
 11
172.084
 21
26.5479
 31
0.0
  0
LINE
  8
0
 62
     0
 10
172.084
 20
26.5479
 30
0.0
 11
159.531
 21
20.6954
 31
0.0
  0
LINE
  8
0
 62
     0
 10
126.333
 20
28.8892
 30
0.0
 11
140.182
 21
28.8892
 31
0.0
  0
LINE
  8
0
 62
     0
 10
140.182
 20
28.8892
 30
0.0
 11
140.182
 21
15.0399
 31
0.0
  0
LINE
  8
0
 62
     0
 10
140.182
 20
15.0399
 30
0.0
 11
126.333
 21
15.0399
 31
0.0
  0
LINE
  8
0
 62
     0
 10
126.333
 20
15.0399
 30
0.0
 11
126.333
 21
28.8892
 31
0.0
  0
LINE
  8
0
 62
     0
 10
107.283
 20
28.8892
 30
0.0
 11
121.132
 21
28.8892
 31
0.0
  0
LINE
  8
0
 62
     0
 10
121.132
 20
28.8892
 30
0.0
 11
121.132
 21
15.0399
 31
0.0
  0
LINE
  8
0
 62
     0
 10
121.132
 20
15.0399
 30
0.0
 11
107.283
 21
15.0399
 31
0.0
  0
LINE
  8
0
 62
     0
 10
107.283
 20
15.0399
 30
0.0
 11
107.283
 21
28.8892
 31
0.0
  0
LINE
  8
0
 62
     0
 10
88.2329
 20
28.8892
 30
0.0
 11
102.082
 21
28.8892
 31
0.0
  0
LINE
  8
0
 62
     0
 10
102.082
 20
28.8892
 30
0.0
 11
102.082
 21
15.0399
 31
0.0
  0
LINE
  8
0
 62
     0
 10
102.082
 20
15.0399
 30
0.0
 11
88.2329
 21
15.0399
 31
0.0
  0
LINE
  8
0
 62
     0
 10
88.2329
 20
15.0399
 30
0.0
 11
88.2329
 21
28.8892
 31
0.0
  0
LINE
  8
0
 62
     0
 10
64.4204
 20
28.8892
 30
0.0
 11
78.2697
 21
28.8892
 31
0.0
  0
LINE
  8
0
 62
     0
 10
78.2697
 20
28.8892
 30
0.0
 11
78.2697
 21
15.0399
 31
0.0
  0
LINE
  8
0
 62
     0
 10
78.2697
 20
15.0399
 30
0.0
 11
64.4204
 21
15.0399
 31
0.0
  0
LINE
  8
0
 62
     0
 10
64.4204
 20
15.0399
 30
0.0
 11
64.4204
 21
28.8892
 31
0.0
  0
LINE
  8
0
 62
     0
 10
176.798
 20
28.7459
 30
0.0
 11
182.651
 21
16.1933
 31
0.0
  0
LINE
  8
0
 62
     0
 10
182.651
 20
16.1933
 30
0.0
 11
195.202
 21
22.0472
 31
0.0
  0
LINE
  8
0
 62
     0
 10
195.202
 20
22.0472
 30
0.0
 11
189.349
 21
34.5984
 31
0.0
  0
LINE
  8
0
 62
     0
 10
189.349
 20
34.5984
 30
0.0
 11
176.798
 21
28.7459
 31
0.0
  0
LINE
  8
0
 62
     0
 10
45.3704
 20
33.6517
 30
0.0
 11
59.2197
 21
33.6517
 31
0.0
  0
LINE
  8
0
 62
     0
 10
59.2197
 20
33.6517
 30
0.0
 11
59.2197
 21
19.8024
 31
0.0
  0
LINE
  8
0
 62
     0
 10
59.2197
 20
19.8024
 30
0.0
 11
45.3704
 21
19.8024
 31
0.0
  0
LINE
  8
0
 62
     0
 10
45.3704
 20
19.8024
 30
0.0
 11
45.3704
 21
33.6517
 31
0.0
  0
LINE
  8
0
 62
     0
 10
194.062
 20
36.7965
 30
0.0
 11
199.916
 21
24.2438
 31
0.0
  0
LINE
  8
0
 62
     0
 10
199.916
 20
24.2438
 30
0.0
 11
212.467
 21
30.0964
 31
0.0
  0
LINE
  8
0
 62
     0
 10
212.467
 20
30.0964
 30
0.0
 11
206.615
 21
42.6501
 31
0.0
  0
LINE
  8
0
 62
     0
 10
206.615
 20
42.6501
 30
0.0
 11
194.062
 21
36.7965
 31
0.0
  0
LINE
  8
0
 62
     0
 10
26.3192
 20
38.4143
 30
0.0
 11
40.1697
 21
38.4143
 31
0.0
  0
LINE
  8
0
 62
     0
 10
40.1697
 20
38.4143
 30
0.0
 11
40.1697
 21
24.5649
 31
0.0
  0
LINE
  8
0
 62
     0
 10
40.1697
 20
24.5649
 30
0.0
 11
26.3192
 21
24.5649
 31
0.0
  0
LINE
  8
0
 62
     0
 10
26.3192
 20
24.5649
 30
0.0
 11
26.3192
 21
38.4143
 31
0.0
  0
LINE
  8
0
 62
     0
 10
151.481
 20
37.9596
 30
0.0
 11
157.335
 21
25.4083
 31
0.0
  0
LINE
  8
0
 62
     0
 10
157.335
 20
25.4083
 30
0.0
 11
169.886
 21
31.2608
 31
0.0
  0
LINE
  8
0
 62
     0
 10
169.886
 20
31.2608
 30
0.0
 11
164.034
 21
43.8132
 31
0.0
  0
LINE
  8
0
 62
     0
 10
164.034
 20
43.8132
 30
0.0
 11
151.481
 21
37.9596
 31
0.0
  0
LINE
  8
0
 62
     0
 10
7.27054
 20
43.1768
 30
0.0
 11
21.1198
 21
43.1768
 31
0.0
  0
LINE
  8
0
 62
     0
 10
21.1198
 20
43.1768
 30
0.0
 11
21.1198
 21
29.3274
 31
0.0
  0
LINE
  8
0
 62
     0
 10
21.1198
 20
29.3274
 30
0.0
 11
7.27054
 21
29.3274
 31
0.0
  0
LINE
  8
0
 62
     0
 10
7.27054
 20
29.3274
 30
0.0
 11
7.27054
 21
43.1768
 31
0.0
  0
LINE
  8
0
 62
     0
 10
168.746
 20
46.0114
 30
0.0
 11
174.599
 21
33.4574
 31
0.0
  0
LINE
  8
0
 62
     0
 10
174.599
 20
33.4574
 30
0.0
 11
187.151
 21
39.3114
 31
0.0
  0
LINE
  8
0
 62
     0
 10
187.151
 20
39.3114
 30
0.0
 11
181.299
 21
51.864
 31
0.0
  0
LINE
  8
0
 62
     0
 10
181.299
 20
51.864
 30
0.0
 11
168.746
 21
46.0114
 31
0.0
  0
LINE
  8
0
 62
     0
 10
126.333
 20
47.9393
 30
0.0
 11
140.182
 21
47.9393
 31
0.0
  0
LINE
  8
0
 62
     0
 10
140.182
 20
47.9393
 30
0.0
 11
140.182
 21
34.0899
 31
0.0
  0
LINE
  8
0
 62
     0
 10
140.182
 20
34.0899
 30
0.0
 11
126.333
 21
34.0899
 31
0.0
  0
LINE
  8
0
 62
     0
 10
126.333
 20
34.0899
 30
0.0
 11
126.333
 21
47.9393
 31
0.0
  0
LINE
  8
0
 62
     0
 10
107.283
 20
47.9393
 30
0.0
 11
121.132
 21
47.9393
 31
0.0
  0
LINE
  8
0
 62
     0
 10
121.132
 20
47.9393
 30
0.0
 11
121.132
 21
34.0899
 31
0.0
  0
LINE
  8
0
 62
     0
 10
121.132
 20
34.0899
 30
0.0
 11
107.283
 21
34.0899
 31
0.0
  0
LINE
  8
0
 62
     0
 10
107.283
 20
34.0899
 30
0.0
 11
107.283
 21
47.9393
 31
0.0
  0
LINE
  8
0
 62
     0
 10
88.2329
 20
47.9393
 30
0.0
 11
102.082
 21
47.9393
 31
0.0
  0
LINE
  8
0
 62
     0
 10
102.082
 20
47.9393
 30
0.0
 11
102.082
 21
34.0899
 31
0.0
  0
LINE
  8
0
 62
     0
 10
102.082
 20
34.0899
 30
0.0
 11
88.2329
 21
34.0899
 31
0.0
  0
LINE
  8
0
 62
     0
 10
88.2329
 20
34.0899
 30
0.0
 11
88.2329
 21
47.9393
 31
0.0
  0
LINE
  8
0
 62
     0
 10
64.4204
 20
47.9393
 30
0.0
 11
78.2697
 21
47.9393
 31
0.0
  0
LINE
  8
0
 62
     0
 10
78.2697
 20
47.9393
 30
0.0
 11
78.2697
 21
34.0899
 31
0.0
  0
LINE
  8
0
 62
     0
 10
78.2697
 20
34.0899
 30
0.0
 11
64.4204
 21
34.0899
 31
0.0
  0
LINE
  8
0
 62
     0
 10
64.4204
 20
34.0899
 30
0.0
 11
64.4204
 21
47.9393
 31
0.0
  0
LINE
  8
0
 62
     0
 10
45.3704
 20
52.7018
 30
0.0
 11
59.2197
 21
52.7018
 31
0.0
  0
LINE
  8
0
 62
     0
 10
59.2197
 20
52.7018
 30
0.0
 11
59.2197
 21
38.8525
 31
0.0
  0
LINE
  8
0
 62
     0
 10
59.2197
 20
38.8525
 30
0.0
 11
45.3704
 21
38.8525
 31
0.0
  0
LINE
  8
0
 62
     0
 10
45.3704
 20
38.8525
 30
0.0
 11
45.3704
 21
52.7018
 31
0.0
  0
LINE
  8
0
 62
     0
 10
186.012
 20
54.0618
 30
0.0
 11
191.864
 21
41.5092
 31
0.0
  0
LINE
  8
0
 62
     0
 10
191.864
 20
41.5092
 30
0.0
 11
204.417
 21
47.3632
 31
0.0
  0
LINE
  8
0
 62
     0
 10
204.417
 20
47.3632
 30
0.0
 11
198.563
 21
59.9144
 31
0.0
  0
LINE
  8
0
 62
     0
 10
198.563
 20
59.9144
 30
0.0
 11
186.012
 21
54.0618
 31
0.0
  0
LINE
  8
0
 62
     0
 10
26.3192
 20
57.4643
 30
0.0
 11
40.1697
 21
57.4643
 31
0.0
  0
LINE
  8
0
 62
     0
 10
40.1697
 20
57.4643
 30
0.0
 11
40.1697
 21
43.615
 31
0.0
  0
LINE
  8
0
 62
     0
 10
40.1697
 20
43.615
 30
0.0
 11
26.3192
 21
43.615
 31
0.0
  0
LINE
  8
0
 62
     0
 10
26.3192
 20
43.615
 30
0.0
 11
26.3192
 21
57.4643
 31
0.0
  0
LINE
  8
0
 62
     0
 10
7.27054
 20
62.2268
 30
0.0
 11
21.1198
 21
62.2268
 31
0.0
  0
LINE
  8
0
 62
     0
 10
21.1198
 20
62.2268
 30
0.0
 11
21.1198
 21
48.3775
 31
0.0
  0
LINE
  8
0
 62
     0
 10
21.1198
 20
48.3775
 30
0.0
 11
7.27054
 21
48.3775
 31
0.0
  0
LINE
  8
0
 62
     0
 10
7.27054
 20
48.3775
 30
0.0
 11
7.27054
 21
62.2268
 31
0.0
  0
LINE
  8
0
 62
     0
 10
1.86862
 20
68.2544
 30
0.0
 11
1.59714
 21
68.115
 31
0.0
  0
LINE
  8
0
 62
     0
 10
1.59714
 20
68.115
 30
0.0
 11
1.38217
 21
67.9002
 31
0.0
  0
LINE
  8
0
 62
     0
 10
1.38217
 20
67.9002
 30
0.0
 11
1.24299
 21
67.6286
 31
0.0
  0
LINE
  8
0
 62
     0
 10
1.24299
 20
67.6286
 30
0.0
 11
1.19476
 21
67.3269
 31
0.0
  0
LINE
  8
0
 62
     0
 10
1.19476
 20
67.3269
 30
0.0
 11
1.24299
 21
67.0264
 31
0.0
  0
LINE
  8
0
 62
     0
 10
1.24299
 20
67.0264
 30
0.0
 11
1.38217
 21
66.7537
 31
0.0
  0
LINE
  8
0
 62
     0
 10
1.38217
 20
66.7537
 30
0.0
 11
1.59714
 21
66.5385
 31
0.0
  0
LINE
  8
0
 62
     0
 10
1.59714
 20
66.5385
 30
0.0
 11
1.86862
 21
66.3995
 31
0.0
  0
LINE
  8
0
 62
     0
 10
1.86862
 20
66.3995
 30
0.0
 11
2.16903
 21
66.3512
 31
0.0
  0
LINE
  8
0
 62
     0
 10
2.16903
 20
66.3512
 30
0.0
 11
2.47082
 21
66.3995
 31
0.0
  0
LINE
  8
0
 62
     0
 10
2.47082
 20
66.3995
 30
0.0
 11
2.74367
 21
66.5385
 31
0.0
  0
LINE
  8
0
 62
     0
 10
2.74367
 20
66.5385
 30
0.0
 11
2.95865
 21
66.7537
 31
0.0
  0
LINE
  8
0
 62
     0
 10
2.95865
 20
66.7537
 30
0.0
 11
3.09783
 21
67.0264
 31
0.0
  0
LINE
  8
0
 62
     0
 10
3.09783
 20
67.0264
 30
0.0
 11
3.14331
 21
67.3269
 31
0.0
  0
LINE
  8
0
 62
     0
 10
3.14331
 20
67.3269
 30
0.0
 11
3.09783
 21
67.6286
 31
0.0
  0
LINE
  8
0
 62
     0
 10
3.09783
 20
67.6286
 30
0.0
 11
2.95865
 21
67.9002
 31
0.0
  0
LINE
  8
0
 62
     0
 10
2.95865
 20
67.9002
 30
0.0
 11
2.74367
 21
68.115
 31
0.0
  0
LINE
  8
0
 62
     0
 10
2.74367
 20
68.115
 30
0.0
 11
2.47082
 21
68.2544
 31
0.0
  0
LINE
  8
0
 62
     0
 10
2.47082
 20
68.2544
 30
0.0
 11
2.16903
 21
68.301
 31
0.0
  0
LINE
  8
0
 62
     0
 10
2.16903
 20
68.301
 30
0.0
 11
1.86862
 21
68.2544
 31
0.0
  0
LINE
  8
0
 62
     0
 10
218.124
 20
68.2544
 30
0.0
 11
217.851
 21
68.115
 31
0.0
  0
LINE
  8
0
 62
     0
 10
217.851
 20
68.115
 30
0.0
 11
217.635
 21
67.9002
 31
0.0
  0
LINE
  8
0
 62
     0
 10
217.635
 20
67.9002
 30
0.0
 11
217.497
 21
67.6286
 31
0.0
  0
LINE
  8
0
 62
     0
 10
217.497
 20
67.6286
 30
0.0
 11
217.449
 21
67.3269
 31
0.0
  0
LINE
  8
0
 62
     0
 10
217.449
 20
67.3269
 30
0.0
 11
217.497
 21
67.0264
 31
0.0
  0
LINE
  8
0
 62
     0
 10
217.497
 20
67.0264
 30
0.0
 11
217.635
 21
66.7537
 31
0.0
  0
LINE
  8
0
 62
     0
 10
217.635
 20
66.7537
 30
0.0
 11
217.851
 21
66.5385
 31
0.0
  0
LINE
  8
0
 62
     0
 10
217.851
 20
66.5385
 30
0.0
 11
218.124
 21
66.3995
 31
0.0
  0
LINE
  8
0
 62
     0
 10
218.124
 20
66.3995
 30
0.0
 11
218.424
 21
66.3512
 31
0.0
  0
LINE
  8
0
 62
     0
 10
218.424
 20
66.3512
 30
0.0
 11
218.725
 21
66.3995
 31
0.0
  0
LINE
  8
0
 62
     0
 10
218.725
 20
66.3995
 30
0.0
 11
218.998
 21
66.5385
 31
0.0
  0
LINE
  8
0
 62
     0
 10
218.998
 20
66.5385
 30
0.0
 11
219.213
 21
66.7537
 31
0.0
  0
LINE
  8
0
 62
     0
 10
219.213
 20
66.7537
 30
0.0
 11
219.352
 21
67.0264
 31
0.0
  0
LINE
  8
0
 62
     0
 10
219.352
 20
67.0264
 30
0.0
 11
219.399
 21
67.3269
 31
0.0
  0
LINE
  8
0
 62
     0
 10
219.399
 20
67.3269
 30
0.0
 11
219.352
 21
67.6286
 31
0.0
  0
LINE
  8
0
 62
     0
 10
219.352
 20
67.6286
 30
0.0
 11
219.213
 21
67.9002
 31
0.0
  0
LINE
  8
0
 62
     0
 10
219.213
 20
67.9002
 30
0.0
 11
218.998
 21
68.115
 31
0.0
  0
LINE
  8
0
 62
     0
 10
218.998
 20
68.115
 30
0.0
 11
218.725
 21
68.2544
 31
0.0
  0
LINE
  8
0
 62
     0
 10
218.725
 20
68.2544
 30
0.0
 11
218.424
 21
68.301
 31
0.0
  0
LINE
  8
0
 62
     0
 10
218.424
 20
68.301
 30
0.0
 11
218.124
 21
68.2544
 31
0.0
  0
ENDSEC
  0
EOF
